<?xml version="1.0" standalone="no"?>
<!DOCTYPE svg PUBLIC "-//W3C//DTD SVG 20010904//EN"
 "http://www.w3.org/TR/2001/REC-SVG-20010904/DTD/svg10.dtd">
<svg version="1.0" xmlns="http://www.w3.org/2000/svg"
 width="1573.958297pt" height="591.219677pt" viewBox="0 0 1573.958297 591.219677"
 preserveAspectRatio="xMidYMid meet">
<metadata>
Created by Potrace Professional 1.1m
</metadata>
<g transform="translate(-0.500000,591.811536) rotate(-360.00) scale(0.095238,-0.095238)"
fill="#000000" stroke="none">
<path d="M12910 6200 c-438 -62 -675 -166 -898 -393 -143 -145 -222 -289 -274
-496 -28 -113 -38 -343 -21 -492 32 -274 190 -734 357 -1040 93 -169 337 -580
343 -574 2 2 -15 58 -37 124 -48 143 -118 394 -150 540 -20 92 -23 137 -23
357 1 287 11 345 88 507 54 112 93 169 178 258 165 173 377 275 657 318 123
19 291 14 389 -12 194 -53 404 -194 551 -372 98 -118 89 -112 123 -90 16 11
53 40 82 64 263 224 603 305 930 221 122 -31 241 -84 328 -147 76 -54 230
-211 279 -283 54 -79 115 -219 145 -330 25 -92 28 -122 28 -291 1 -200 -8
-264 -63 -457 -82 -288 -197 -500 -750 -1377 l-236 -375 -7 212 c-9 241 -26
358 -72 481 -70 195 -209 338 -396 411 -290 112 -554 -20 -636 -318 -16 -60
-33 -187 -23 -177 3 3 27 49 53 102 53 110 129 199 200 233 55 27 152 29 209
5 170 -71 327 -313 410 -634 52 -197 68 -334 74 -637 7 -317 -9 -1024 -28
-1250 -12 -141 -12 -150 7 -183 35 -59 71 -79 144 -78 172 2 460 159 539 294
33 57 46 154 88 671 49 610 50 616 232 1124 203 569 316 860 524 1354 128 303
195 519 254 814 22 112 24 146 24 473 -1 322 -3 360 -24 458 -60 278 -153 471
-304 635 -230 249 -499 349 -979 362 -197 6 -254 0 -714 -70 -161 -24 -252
-33 -362 -33 -147 -1 -168 2 -651 77 -180 27 -449 34 -588 14z"/>
<path d="M5717 2720 l0 -819 90 0 89 0 0 819 0 819 -89 0 -90 0 0 -819z"/>
<path d="M8384 2720 l0 -819 90 0 89 0 0 819 0 819 -89 0 -90 0 0 -819z"/>
<path d="M7403 3403 c-244 -52 -421 -182 -521 -384 -60 -123 -73 -188 -73
-378 0 -190 16 -260 87 -399 58 -112 182 -232 297 -287 141 -67 209 -80 404
-80 138 1 183 5 251 24 116 32 193 69 204 98 11 31 24 124 16 124 -3 0 -34
-19 -68 -43 -82 -55 -176 -99 -261 -121 -130 -33 -336 1 -454 76 -183 116
-287 380 -267 679 23 333 179 550 440 611 95 23 232 20 314 -5 70 -21 165 -77
231 -135 42 -37 45 -36 56 25 5 23 14 59 21 80 l14 38 -49 19 c-203 78 -445
99 -642 58z"/>
<path d="M9016 3402 c-40 -32 -54 -84 -35 -130 16 -38 62 -69 102 -69 96 0
143 123 72 190 -40 37 -98 41 -139 9z"/>
<path d="M10833 3402 c-40 -32 -54 -84 -35 -130 16 -38 62 -69 101 -69 96 0
143 123 72 190 -40 37 -97 41 -138 9z"/>
<path d="M5 2649 l0 -748 289 -1 c370 -2 393 -1 462 12 253 47 438 182 541
393 65 133 83 231 75 419 -12 308 -110 489 -324 593 -142 69 -200 76 -651 78
l-392 2 0 -748z m762 631 c229 -47 357 -206 388 -487 29 -253 -31 -495 -158
-633 -131 -144 -290 -194 -590 -183 -88 3 -168 8 -178 12 -12 6 -19 26 -24 72
-8 79 -3 1211 6 1219 12 12 249 26 361 21 64 -3 151 -13 195 -21z"/>
<path d="M4058 3187 l-84 -35 4 -122 4 -121 -70 0 -69 0 0 -47 0 -46 67 6 c38
3 69 1 73 -5 3 -6 1 -169 -5 -363 -10 -314 -9 -358 6 -410 18 -64 56 -115 101
-138 47 -25 145 -36 220 -25 95 13 105 17 105 45 0 23 -2 24 -76 19 -67 -4
-80 -2 -112 20 -20 14 -46 44 -58 67 -20 39 -22 62 -25 310 -2 147 -1 316 3
376 l8 109 114 -5 115 -4 0 45 0 46 -116 0 -116 0 6 86 c3 48 8 119 11 158 3
52 1 70 -9 70 -7 0 -51 -16 -97 -36z"/>
<path d="M1985 2950 c-204 -23 -345 -155 -394 -369 -39 -172 -28 -322 32 -440
52 -102 180 -209 293 -242 126 -38 286 -29 407 23 113 48 140 72 148 132 4 27
5 51 3 54 -3 2 -27 -14 -55 -35 -173 -133 -375 -145 -518 -33 -86 69 -137 184
-137 312 l0 74 378 0 378 0 0 70 c0 143 -42 257 -123 336 -101 98 -239 137
-412 118z m197 -88 c78 -42 130 -127 148 -244 6 -42 12 -83 12 -91 0 -20 -235
-33 -430 -23 l-144 8 9 59 c23 149 121 279 231 307 45 11 139 3 174 -16z"/>
<path d="M3218 2950 c-97 -13 -181 -62 -252 -147 l-39 -46 4 85 4 86 -89 0
-90 0 0 -514 0 -513 95 0 95 0 -9 107 c-5 59 -7 219 -5 355 3 224 6 251 27
304 46 115 127 169 254 169 123 1 190 -51 228 -179 15 -48 18 -100 16 -305 -1
-136 -5 -293 -8 -349 l-7 -102 88 0 89 0 7 370 c6 316 5 379 -9 433 -21 80
-80 167 -135 199 -69 40 -175 59 -264 47z"/>
<path d="M4883 2949 c-81 -8 -159 -36 -232 -83 l-52 -33 0 -62 c0 -34 2 -62 5
-62 2 0 29 25 60 56 67 66 138 95 234 94 74 -1 104 -11 151 -51 56 -46 78
-102 79 -197 1 -78 -1 -84 -26 -103 -18 -14 -89 -33 -206 -56 -240 -48 -320
-89 -366 -188 -32 -68 -34 -170 -6 -232 24 -50 89 -115 133 -132 139 -53 314
-20 424 80 22 20 43 36 47 36 3 0 13 -15 21 -34 24 -58 52 -75 132 -80 86 -5
148 12 148 41 0 15 -10 20 -44 23 -34 2 -49 10 -66 32 -21 29 -22 41 -22 378
0 345 0 349 -24 396 -71 137 -203 196 -390 177z m251 -626 c0 -188 -6 -217
-58 -269 -73 -73 -160 -103 -251 -86 -50 9 -118 71 -131 120 -37 131 20 238
148 280 40 13 252 63 285 67 4 1 7 -50 7 -112z"/>
<path d="M10022 2950 c-97 -13 -181 -62 -252 -147 l-39 -46 4 85 4 86 -89 0
-90 0 0 -514 0 -513 95 0 95 0 -9 107 c-5 59 -7 219 -5 355 3 224 6 251 27
304 46 115 127 169 254 169 123 1 190 -51 228 -179 15 -48 18 -100 16 -305 -1
-136 -5 -293 -8 -349 l-7 -102 88 0 89 0 7 370 c6 316 5 379 -9 433 -21 80
-80 167 -135 199 -69 40 -175 59 -264 47z"/>
<path d="M11781 2950 c-185 -21 -315 -96 -403 -233 -54 -84 -72 -147 -77 -272
-17 -354 182 -568 527 -567 109 0 195 23 294 79 61 34 64 36 73 89 5 30 6 57
3 61 -4 4 -25 -10 -48 -30 -71 -65 -169 -106 -265 -111 -100 -6 -163 9 -237
57 -90 59 -133 144 -152 302 -14 115 -1 243 34 337 28 75 101 154 174 190 137
67 324 21 409 -102 15 -23 32 -38 36 -34 5 5 19 39 31 76 l23 68 -25 18 c-34
26 -145 61 -216 68 -33 3 -72 7 -86 8 -15 2 -57 0 -95 -4z"/>
<path d="M8993 2414 l0 -513 90 0 89 0 0 513 0 514 -89 0 -90 0 0 -514z"/>
<path d="M10810 2414 l0 -513 89 0 89 0 0 513 0 514 -89 0 -89 0 0 -514z"/>
<path d="M11284 1533 c-40 -32 -54 -84 -35 -130 16 -38 62 -69 102 -69 96 0
143 123 72 190 -40 37 -98 41 -139 9z"/>
<path d="M14319 1533 c-40 -32 -54 -84 -35 -130 16 -38 62 -69 101 -69 96 0
143 123 72 190 -40 37 -97 41 -138 9z"/>
<path d="M5 780 l0 -748 289 -1 c370 -2 393 -1 462 12 253 47 438 182 541 393
65 133 83 231 75 419 -12 308 -110 489 -324 593 -142 69 -200 76 -651 78
l-392 2 0 -748z m762 631 c229 -47 357 -206 388 -487 29 -253 -31 -495 -158
-633 -131 -144 -290 -194 -590 -183 -88 3 -168 8 -178 12 -12 6 -19 26 -24 72
-8 79 -3 1211 6 1219 12 12 249 26 361 21 64 -3 151 -13 195 -21z"/>
<path d="M8458 780 l0 -748 391 0 391 0 0 58 0 59 -45 -6 c-24 -3 -156 -9
-294 -13 l-249 -7 0 323 0 324 231 -7 c127 -4 245 -10 262 -14 l32 -6 0 71 0
71 -55 -7 c-30 -3 -149 -9 -263 -13 l-207 -7 0 279 c0 166 4 282 10 285 10 7
340 -8 491 -22 l75 -6 0 67 0 67 -385 0 -385 0 0 -748z"/>
<path d="M3142 1499 c8 -13 127 -211 264 -441 l248 -417 -1 -213 c0 -117 -4
-254 -8 -305 l-7 -92 109 1 109 0 -6 60 c-4 33 -9 175 -13 315 l-7 254 77 134
c87 153 217 365 347 565 49 75 92 142 97 149 6 10 -12 14 -76 14 l-85 0 -100
-197 c-110 -218 -289 -530 -307 -536 -11 -3 -145 229 -318 551 l-97 182 -121
0 -120 0 15 -24z"/>
<path d="M9602 1318 l-84 -35 4 -122 4 -121 -70 0 -69 0 0 -47 0 -46 67 6 c38
3 69 1 73 -5 3 -6 1 -169 -5 -363 -10 -314 -9 -358 6 -410 18 -64 56 -115 101
-138 47 -25 145 -36 220 -25 95 13 105 17 105 45 0 23 -2 24 -76 19 -67 -4
-80 -2 -112 20 -20 14 -46 44 -58 67 -20 39 -22 62 -25 310 -2 147 -1 316 3
376 l8 109 114 -5 115 -4 0 45 0 46 -116 0 -116 0 6 86 c3 48 8 119 11 158 3
52 1 70 -9 70 -7 0 -51 -16 -97 -36z"/>
<path d="M2079 1082 c-20 -4 -51 -15 -69 -24 -38 -20 -134 -122 -157 -167 -9
-16 -19 -30 -22 -30 -4 0 -5 45 -2 99 l6 99 -86 0 -86 0 0 -514 0 -513 85 -1
84 0 0 344 c0 337 1 345 24 397 28 59 67 104 111 127 39 21 124 21 165 0 38
-19 38 -21 46 96 5 80 4 87 -14 87 -11 0 -27 1 -34 4 -8 2 -31 0 -51 -4z"/>
<path d="M4667 1081 c-142 -15 -269 -78 -344 -169 -150 -183 -162 -499 -28
-700 65 -97 156 -158 280 -187 157 -37 354 -12 462 58 155 101 224 243 223
463 0 176 -41 292 -141 391 -108 108 -279 163 -452 144z m150 -77 c111 -28
183 -106 226 -243 31 -97 32 -332 3 -430 -36 -123 -105 -206 -198 -242 -61
-23 -205 -18 -257 9 -123 65 -191 220 -191 441 -1 267 81 419 251 465 63 17
100 17 166 0z"/>
<path d="M5979 1081 c-97 -13 -181 -62 -251 -147 l-39 -46 3 85 4 86 -89 0
-89 0 0 -514 0 -513 95 0 94 0 -8 107 c-5 59 -8 219 -6 355 4 224 6 251 27
304 46 115 127 169 255 169 123 1 189 -51 228 -179 14 -48 17 -100 16 -305 -1
-136 -5 -293 -9 -349 l-7 -102 89 0 89 0 7 370 c6 316 4 379 -9 433 -21 80
-80 167 -136 199 -69 40 -175 59 -264 47z"/>
<path d="M7025 1080 c-81 -8 -159 -36 -232 -83 l-52 -33 0 -62 c0 -34 2 -62 5
-62 2 0 29 25 60 56 67 66 138 95 234 94 74 -1 104 -11 151 -51 56 -46 78
-102 79 -197 1 -78 -1 -84 -26 -103 -18 -14 -89 -33 -206 -56 -240 -48 -320
-89 -366 -188 -32 -68 -34 -170 -6 -232 24 -50 89 -115 133 -132 139 -53 314
-20 424 80 22 20 43 36 47 36 3 0 13 -15 21 -34 24 -58 52 -75 132 -80 86 -5
148 12 148 41 0 15 -10 20 -44 23 -34 2 -49 10 -66 32 -21 29 -22 41 -22 378
0 345 0 349 -24 396 -71 137 -203 196 -390 177z m251 -626 c0 -188 -6 -217
-58 -269 -73 -73 -160 -103 -251 -86 -50 9 -118 71 -131 120 -37 131 20 238
148 280 40 13 252 63 285 67 4 1 7 -50 7 -112z"/>
<path d="M12196 1081 c-142 -15 -270 -78 -344 -169 -150 -183 -163 -499 -28
-700 64 -97 155 -158 279 -187 158 -37 354 -12 462 58 155 101 224 243 224
463 0 176 -42 292 -142 391 -108 108 -279 163 -451 144z m149 -77 c111 -28
184 -106 227 -243 30 -97 32 -332 3 -430 -37 -123 -105 -206 -199 -242 -61
-23 -204 -18 -256 9 -124 65 -191 220 -192 441 0 267 82 419 251 465 64 17
101 17 166 0z"/>
<path d="M13497 1081 c-97 -13 -181 -62 -251 -147 l-39 -46 3 85 4 86 -89 0
-89 0 0 -514 0 -513 95 0 94 0 -8 107 c-5 59 -8 219 -6 355 4 224 6 251 27
304 46 115 127 169 255 169 123 1 189 -51 228 -179 14 -48 17 -100 16 -305 -1
-136 -5 -293 -9 -349 l-7 -102 89 0 89 0 7 370 c6 316 4 379 -9 433 -21 80
-80 167 -136 199 -69 40 -175 59 -264 47z"/>
<path d="M10143 1002 c0 -67 -25 -62 240 -47 255 15 338 18 338 10 0 -11 -468
-632 -590 -784 -57 -71 -103 -134 -103 -140 0 -6 180 -9 464 -9 l465 0 0 56 0
57 -32 -4 c-79 -11 -367 -25 -500 -25 l-147 -1 288 381 c158 209 314 415 347
458 33 42 59 83 59 89 0 9 -110 13 -414 14 l-415 2 0 -57z"/>
<path d="M11261 545 l0 -513 90 0 89 0 0 513 0 514 -89 0 -90 0 0 -514z"/>
<path d="M14296 545 l0 -513 89 0 89 0 0 513 0 514 -89 0 -89 0 0 -514z"/>
<path d="M2301 238 c-86 -48 -83 -170 5 -211 51 -25 104 -16 145 25 27 27 32
41 32 80 0 42 -5 53 -39 84 -43 39 -96 48 -143 22z"/>
</g>
</svg>
